<svg width="368" height="327" viewBox="0 0 368 327" fill="none" xmlns="http://www.w3.org/2000/svg">
<path d="M81.7515 245.249H40.8757V286.124H81.7515V245.249ZM122.627 245.249H81.7515V286.124H122.627V245.249ZM81.7515 286.124H40.8757V327H81.7515V286.124ZM122.627 286.124H81.7515V327H122.627V286.124ZM81.7515 204.373H40.8757V245.249H81.7515V204.373ZM40.8757 245.249H0V286.124H40.8757V245.249ZM40.8757 286.124H0V327H40.8757V286.124ZM40.8757 204.373H0V245.249H40.8757V204.373ZM122.627 204.373H81.7515V245.249H122.627V204.373ZM245.254 286.124H204.379V327H245.254V286.124ZM286.13 286.124H245.254V327H286.13V286.124ZM327.006 286.124H286.13V327H327.006V286.124ZM245.254 245.249H204.379V286.124H245.254V245.249ZM286.13 245.249H245.254V286.124H286.13V245.249ZM327.006 245.249H286.13V286.124H327.006V245.249ZM245.254 204.373H204.379V245.249H245.254V204.373ZM286.13 204.373H245.254V245.249H286.13V204.373ZM327.006 204.373H286.13V245.249H327.006V204.373ZM367.882 286.124H327.006V327H367.882V286.124ZM367.882 245.249H327.006V286.124H367.882V245.249ZM367.882 204.373H327.006V245.249H367.882V204.373ZM163.509 163.497H122.633V204.373H163.509V163.497ZM204.385 163.497H163.509V204.373H204.385V163.497ZM163.509 122.621H122.633V163.497H163.509V122.621ZM204.385 122.621H163.509V163.497H204.385V122.621ZM163.509 81.7456H122.633V122.621H163.509V81.7456ZM204.385 81.7456H163.509V122.621H204.385V81.7456ZM245.26 40.8699H204.385V81.7456H245.26V40.8699ZM286.136 40.8699H245.26V81.7456H286.136V40.8699ZM245.249 0H204.373V40.8757H245.249V0ZM286.124 0H245.249V40.8757H286.124V0Z" fill="url(#paint0_linear_6098_1995)"/>
<defs>
<linearGradient id="paint0_linear_6098_1995" x1="61.3136" y1="388.314" x2="367.876" y2="81.7515" gradientUnits="userSpaceOnUse">
<stop offset="0.19" stop-color="#FF4C00"/>
<stop offset="0.55" stop-color="#AD85C8"/>
<stop offset="0.91" stop-color="#00E4F0"/>
</linearGradient>
</defs>
</svg>
