<svg width="52" height="52" viewBox="0 0 52 52" fill="none" xmlns="http://www.w3.org/2000/svg">
<circle cx="26" cy="26" r="25.5" fill="white" fill-opacity="0.5" stroke="white"/>
<path d="M32.1191 28.9775L38 34.853C37.9548 34.9434 37.8644 35.0337 37.774 35.1285C36.4993 36.4021 34.9488 37.7253 33.1271 37.9511C32.9011 37.9963 27.7932 38.7686 21.0942 32.0756C16.2575 27.2478 14.6166 23.7885 15.0732 19.8729C15.3037 18.0484 16.6688 16.5039 17.8983 15.2258C17.9888 15.1355 18.0792 15.0903 18.1741 15L23.96 20.7807L22.048 22.691C21.1846 23.5581 21.1846 24.9672 22.048 25.8794L27.0609 30.8879C27.9288 31.755 29.3392 31.755 30.2523 30.8879L32.1191 28.9775Z" fill="white"/>
</svg>
